<?xml version="1.0" encoding="UTF-8"?>
<svg id="Layer_1" data-name="Layer 1" xmlns="http://www.w3.org/2000/svg" viewBox="0 0 2157.78 311.06">
  <defs>
    <style>
      .cls-1 {
        fill: #fff;
      }

      .cls-2 {
        fill: #ea1b1b;
      }
    </style>
  </defs>
  <g>
    <path class="cls-1" d="M418.33,132.73c5.9-16.44,8.85-30.83,8.85-43.17s-3.44-21.94-10.32-28.82c-6.88-6.88-17.83-10.32-32.85-10.32-11.26,0-23.46,2.33-36.6,6.97-13.14,4.65-26.46,12.16-39.95,22.52-13.5,10.37-26.5,24.22-39.01,41.56-.85,1.18-1.7,2.39-2.54,3.61,3.66-8.66,6.61-16.35,8.84-23.05,2.23-6.7,3.44-12.74,3.62-18.1.36-11.08-3.08-19.44-10.32-25.07-7.24-5.63-18.19-8.45-32.85-8.45s-31.37,4.2-49.6,12.6c-18.23,8.4-36.16,22.44-53.76,42.1-6.09,6.8-11.92,14.48-17.51,22.99.76-1.81,1.5-3.58,2.23-5.29,3.84-9.12,6.97-17.25,9.38-24.4,2.41-7.15,3.62-13.49,3.62-19.04,0-9.47-3.22-16.67-9.65-21.58-6.44-4.91-15.46-7.37-27.08-7.37-17.88,0-33.92,4.07-48.13,12.2-14.21,8.14-24.89,18.9-32.04,32.31-2.68,5.19-3.98,9.52-3.89,13,.09,3.49,1.38,5.86,3.89,7.11,2.15.9,4.33,1.03,6.57.4,2.23-.62,5.05-2.46,8.45-5.5,4.11-3.93,7.64-6.61,10.59-8.04,2.95-1.43,5.67-2.15,8.18-2.15,4.47,0,7.37,2.64,8.71,7.91,1.34,5.27-.49,14.71-5.5,28.29L7.28,253.12c-6.97,18.95-8.94,33.34-5.9,43.17,3.04,9.83,11.53,14.75,25.47,14.75,18.41,0,32.93-2.77,43.57-8.31,10.63-5.54,15.95-12.87,15.95-21.99,0-5.18-.85-9.69-2.55-13.54-1.7-3.84-2.55-8.27-2.55-13.27,0-3.22.49-6.97,1.47-11.26.98-4.29,2.64-9.83,4.96-16.62,2.32-6.79,5.27-15.28,8.85-25.47,7.86-21.63,17.16-39.77,27.89-54.43,10.73-14.66,21.63-25.74,32.71-33.25,11.08-7.51,20.82-11.26,29.23-11.26,7.86,0,12.56,3.44,14.08,10.32,1.52,6.88-.4,18.1-5.76,33.65l-37.81,107.52c-4.47,12.69-6.84,23.37-7.11,32.04-.27,8.67,1.78,15.15,6.17,19.44,4.38,4.29,11.22,6.44,20.51,6.44,18.41,0,32.93-2.77,43.57-8.31,10.63-5.54,15.95-12.87,15.95-21.99,0-5.18-.85-9.69-2.55-13.54-1.7-3.84-2.55-8.27-2.55-13.27,0-3.22.49-6.97,1.47-11.26.98-4.29,2.64-9.83,4.96-16.62,2.32-6.79,5.36-15.28,9.12-25.47,7.86-21.45,17.07-39.55,27.62-54.3,10.55-14.75,21.27-25.87,32.18-33.38,10.9-7.51,20.65-11.26,29.23-11.26,7.68,0,12.42,3.44,14.21,10.32,1.78,6.88-.18,18.1-5.9,33.65l-33.25,94.92c-5.01,14.48-7.33,27.04-6.97,37.67.36,10.64,3.8,18.77,10.32,24.4,6.52,5.63,16.49,8.45,29.9,8.45,17.87,0,33.78-4.02,47.73-12.07s24.4-18.77,31.37-32.18c2.86-5.36,4.24-9.74,4.16-13.14-.09-3.39-1.47-5.81-4.16-7.24-1.79-1.07-3.8-1.25-6.03-.54-2.24.72-5.23,2.59-8.98,5.63-3.93,3.75-7.33,6.44-10.19,8.04-2.86,1.61-5.72,2.41-8.58,2.41-4.11,0-6.93-2.72-8.45-8.18-1.52-5.45.13-14.79,4.96-28.02l32.71-93.04Z"/>
    <path class="cls-1" d="M658.43,66.63c-17.43-10.63-38.74-16.13-63.95-16.49-19.67-.36-38.12,2.46-55.37,8.45-17.25,5.99-32.76,14.79-46.52,26.41-13.77,11.62-25.3,25.52-34.59,41.69-9.3,16.18-15.82,34.19-19.57,54.03-4.83,26.64-3.58,49.6,3.75,68.91,7.33,19.31,19.62,34.28,36.87,44.91,17.25,10.63,38.3,16.13,63.15,16.49,19.84.36,38.48-2.46,55.9-8.45,17.43-5.99,33.07-14.75,46.92-26.28,13.85-11.53,25.47-25.43,34.86-41.69,9.38-16.26,15.95-34.32,19.71-54.16,5-26.63,3.75-49.6-3.75-68.91-7.51-19.31-19.97-34.27-37.4-44.91ZM619.42,182.06c-3.04,13.94-6.66,26.5-10.86,37.67-4.2,11.17-8.85,20.83-13.94,28.96-5.1,8.14-10.5,14.84-16.22,20.11-5.72,5.27-11.66,9.03-17.83,11.26-6.17,2.24-12.56,3-19.17,2.28-8.94-1.25-15.95-5.81-21.05-13.67-5.09-7.86-7.87-19.26-8.31-34.19-.45-14.92,1.74-33.29,6.57-55.1,3.04-14.12,6.61-26.77,10.73-37.94,4.11-11.17,8.67-20.82,13.67-28.96,5-8.13,10.32-14.84,15.95-20.11,5.63-5.27,11.48-9.02,17.56-11.26,6.07-2.23,12.33-2.99,18.77-2.28,9.47,1.25,16.8,5.86,21.99,13.81,5.18,7.96,8.04,19.31,8.58,34.05.54,14.75-1.61,33.21-6.44,55.37Z"/>
    <path class="cls-1" d="M1121.89,132.73c5.9-16.44,8.85-30.83,8.85-43.17s-3.44-21.94-10.32-28.82c-6.88-6.88-17.83-10.32-32.85-10.32-11.26,0-23.46,2.33-36.6,6.97-13.14,4.65-26.46,12.16-39.95,22.52-13.5,10.37-26.5,24.22-39.01,41.56-.85,1.18-1.7,2.39-2.54,3.61,3.66-8.67,6.61-16.35,8.85-23.05,2.23-6.7,3.44-12.74,3.62-18.1.36-11.08-3.08-19.44-10.32-25.07s-18.19-8.45-32.85-8.45-31.37,4.2-49.6,12.6c-18.23,8.4-36.16,22.44-53.76,42.1-6.09,6.8-11.92,14.48-17.51,22.99.76-1.81,1.5-3.58,2.23-5.29,3.84-9.12,6.97-17.25,9.38-24.4,2.41-7.15,3.62-13.49,3.62-19.04,0-9.47-3.22-16.67-9.65-21.58-6.44-4.91-15.46-7.37-27.08-7.37-17.88,0-33.92,4.07-48.13,12.2-14.21,8.14-24.89,18.9-32.04,32.31-2.68,5.19-3.98,9.52-3.89,13,.09,3.49,1.38,5.86,3.89,7.11,2.14.9,4.33,1.03,6.57.4,2.23-.62,5.05-2.46,8.45-5.5,4.11-3.93,7.64-6.61,10.59-8.04,2.95-1.43,5.67-2.15,8.18-2.15,4.47,0,7.37,2.64,8.71,7.91,1.34,5.27-.49,14.71-5.5,28.29l-42.36,117.17c-6.97,18.95-8.94,33.34-5.9,43.17,3.04,9.83,11.53,14.75,25.47,14.75,18.41,0,32.93-2.77,43.57-8.31,10.63-5.54,15.95-12.87,15.95-21.99,0-5.18-.85-9.69-2.55-13.54-1.7-3.84-2.55-8.27-2.55-13.27,0-3.22.49-6.97,1.47-11.26.98-4.29,2.64-9.83,4.96-16.62,2.32-6.79,5.27-15.28,8.85-25.47,7.86-21.63,17.16-39.77,27.89-54.43,10.73-14.66,21.63-25.74,32.71-33.25,11.08-7.51,20.82-11.26,29.23-11.26,7.86,0,12.56,3.44,14.08,10.32,1.52,6.88-.4,18.1-5.76,33.65l-37.81,107.52c-4.47,12.69-6.84,23.37-7.11,32.04-.27,8.67,1.79,15.15,6.17,19.44,4.38,4.29,11.22,6.44,20.51,6.44,18.41,0,32.93-2.77,43.57-8.31,10.63-5.54,15.95-12.87,15.95-21.99,0-5.18-.85-9.69-2.55-13.54-1.7-3.84-2.55-8.27-2.55-13.27,0-3.22.49-6.97,1.48-11.26.98-4.29,2.63-9.83,4.96-16.62,2.32-6.79,5.36-15.28,9.12-25.47,7.86-21.45,17.07-39.55,27.62-54.3,10.54-14.75,21.27-25.87,32.18-33.38,10.9-7.51,20.65-11.26,29.23-11.26,7.68,0,12.42,3.44,14.21,10.32,1.78,6.88-.18,18.1-5.9,33.65l-33.25,94.92c-5.01,14.48-7.33,27.04-6.97,37.67.36,10.64,3.8,18.77,10.32,24.4,6.52,5.63,16.49,8.45,29.9,8.45,17.87,0,33.79-4.02,47.73-12.07s24.4-18.77,31.37-32.18c2.86-5.36,4.24-9.74,4.16-13.14-.09-3.39-1.47-5.81-4.16-7.24-1.79-1.07-3.8-1.25-6.03-.54-2.24.72-5.23,2.59-8.98,5.63-3.93,3.75-7.33,6.44-10.19,8.04-2.86,1.61-5.72,2.41-8.58,2.41-4.11,0-6.93-2.72-8.45-8.18-1.52-5.45.13-14.79,4.96-28.02l32.71-93.04Z"/>
    <path class="cls-1" d="M1256.89,190.11c14.03-4.65,28.15-9.25,42.37-13.81,14.21-4.56,27.39-8.8,39.55-12.74,12.15-3.93,22.07-7.15,29.76-9.65,7.86-2.32,13.18-4.96,15.95-7.91,2.77-2.95,4.16-6.12,4.16-9.52,0-2.5-.72-4.42-2.14-5.76-1.43-1.34-3.4-2.19-5.9-2.55-2.5-.36-4.38-1.7-5.63-4.02-1.25-2.32-2.14-5.09-2.68-8.31-1.07-12.33-4.42-23.42-10.06-33.25-5.63-9.83-13.67-17.65-24.13-23.46-10.46-5.81-23.64-8.71-39.55-8.71-20.92,0-40.62,4.11-59.12,12.33-18.5,8.22-34.95,19.62-49.34,34.19-14.39,14.57-26.01,31.33-34.86,50.27-8.85,18.95-14.08,39.24-15.69,60.87-1.61,21.27.85,39.6,7.37,54.97,6.52,15.38,17.29,27.22,32.31,35.53,15.02,8.31,34.41,12.47,58.18,12.47,26.28,0,48.71-3.98,67.3-11.93,18.59-7.95,33.42-18.37,44.51-31.24,11.08-12.87,18.14-26.37,21.18-40.49,1.61-6.97,1.34-12.07-.8-15.28-2.15-3.22-5.01-4.83-8.58-4.83-3.22-.18-6.12.58-8.71,2.28-2.59,1.7-5.68,4.96-9.25,9.79-5.19,10.01-11.66,18.59-19.44,25.74-7.78,7.15-16.4,12.65-25.88,16.49-9.48,3.85-19.4,5.76-29.76,5.76-18.41,0-32.36-6.61-41.83-19.84-7.53-10.51-11.43-25.03-11.74-43.55,1.29-.41,2.57-.83,3.83-1.23,11.71-3.75,24.58-7.95,38.61-12.6ZM1240.4,108.86c6.61-10.01,13.67-17.78,21.18-23.33,7.51-5.54,14.92-8.31,22.25-8.31s13.45,3.4,17.83,10.19c4.38,6.8,6.57,15.73,6.57,26.81,0,9.12-.49,17.21-1.47,24.27-.54,3.89-1.18,7.48-1.91,10.79-7.09,2.52-15.11,5.31-24.1,8.38-11.53,3.93-23.29,8-35.26,12.2-10.56,3.71-20.46,7.13-29.7,10.28,1.51-12.79,4.12-24.77,7.85-35.89,4.56-13.58,10.14-25.38,16.76-35.39Z"/>
    <path class="cls-1" d="M1657.62,132.73c5.9-16.62,8.89-31.06,8.98-43.3.09-12.24-3.35-21.81-10.32-28.69-6.97-6.88-18.41-10.32-34.32-10.32-11.26,0-23.6,2.28-37,6.84s-26.95,12.07-40.62,22.52c-13.67,10.46-26.86,24.31-39.55,41.56-1.87,2.54-3.71,5.18-5.52,7.91.93-2.21,1.83-4.36,2.7-6.43,3.84-9.12,6.97-17.25,9.38-24.4,2.41-7.15,3.62-13.49,3.62-19.04,0-9.47-3.22-16.67-9.65-21.58-6.44-4.91-15.46-7.37-27.08-7.37-17.88,0-33.88,4.07-48,12.2-14.12,8.14-24.85,18.9-32.18,32.31-2.68,5.19-3.98,9.52-3.89,13,.09,3.49,1.38,5.86,3.89,7.11,2.14.9,4.33,1.03,6.57.4,2.23-.62,5.05-2.46,8.45-5.5,4.11-3.93,7.64-6.61,10.59-8.04,2.95-1.43,5.67-2.15,8.18-2.15,4.47,0,7.37,2.64,8.71,7.91,1.34,5.27-.49,14.71-5.5,28.29l-42.36,117.17c-6.97,18.95-8.94,33.34-5.9,43.17,3.04,9.83,11.53,14.75,25.47,14.75,18.41,0,32.93-2.77,43.57-8.31,10.63-5.54,15.95-12.87,15.95-21.99,0-5.18-.85-9.69-2.55-13.54-1.7-3.84-2.55-8.27-2.55-13.27,0-3.22.49-6.97,1.47-11.26.98-4.29,2.64-9.83,4.96-16.62,2.32-6.79,5.27-15.28,8.85-25.47,5.9-16.09,12.69-30.3,20.38-42.63,7.68-12.33,15.73-22.66,24.13-30.97,8.4-8.31,16.62-14.61,24.67-18.9s15.37-6.44,21.99-6.44c8.76,0,14.03,3.4,15.82,10.19,1.78,6.8-.27,18.06-6.17,33.78l-33.25,94.92c-5.19,14.48-7.6,27.04-7.24,37.67.36,10.64,3.84,18.77,10.46,24.4,6.61,5.63,16.62,8.45,30.03,8.45,17.7,0,33.52-4.02,47.46-12.07,13.94-8.04,24.49-18.77,31.64-32.18,2.68-5.36,3.98-9.74,3.89-13.14-.09-3.39-1.39-5.81-3.89-7.24-2.15-1.07-4.34-1.25-6.57-.54-2.24.72-5.05,2.59-8.45,5.63-4.11,3.75-7.6,6.44-10.46,8.04-2.86,1.61-5.63,2.41-8.31,2.41-4.29,0-7.11-2.68-8.45-8.04-1.34-5.36.4-14.75,5.23-28.15l32.71-93.04Z"/>
    <path class="cls-1" d="M1839.54,235.69c-1.52-1.79-3.62-2.68-6.3-2.68-2.15,0-4.16.54-6.03,1.61-1.88,1.07-4.07,3.04-6.57,5.9-7.15,7.69-13.94,13.18-20.38,16.49-6.44,3.31-13.23,4.96-20.38,4.96-9.48,0-15.6-2.9-18.37-8.71-2.77-5.81-1.66-16.93,3.35-33.38l37.72-126.83h44.06c8.58,0,15.37-1.74,20.38-5.23,5-3.49,7.51-8.27,7.51-14.34,0-6.79-3.75-10.19-11.26-10.19h-51.84l8.13-27.35c1.43-5.18,2.5-9.79,3.22-13.81.71-4.02,1.07-7.19,1.07-9.52,0-3.93-1.07-7.01-3.22-9.25-2.15-2.23-5.46-3.35-9.92-3.35-3.58,0-6.97.67-10.19,2.01-3.22,1.34-6.35,3.8-9.38,7.37l-32.71,39.68c-3.93,4.29-7.96,7.51-12.07,9.65-4.11,2.15-8.85,3.22-14.21,3.22h-19.57c-5.72,0-10.32,1.21-13.81,3.62-3.49,2.41-5.23,5.77-5.23,10.06,0,2.86.85,5.45,2.55,7.78,1.7,2.33,4.24,4.2,7.64,5.63l17.7,4.29c4.47,1.43,7.01,4.11,7.64,8.04.62,3.93-.58,10.91-3.62,20.91l-32.71,106.18c-5.54,18.23-7.87,33.47-6.97,45.72.89,12.25,5.23,21.45,13,27.62,7.78,6.17,19.26,9.25,34.46,9.25s28.64-2.19,41.43-6.57c12.78-4.38,24-10.01,33.65-16.89,9.65-6.88,17.34-14.21,23.06-21.99,5.72-7.78,9.02-15.24,9.92-22.39.36-3.22-.23-5.72-1.74-7.51Z"/>
    <path class="cls-1" d="M1956.45,82.99c6.52-5.81,15.33-8.71,26.41-8.71,9.47,0,17.65,2.73,24.53,8.18,6.88,5.45,13,13.54,18.37,24.27,4.83,10.37,9.61,17.61,14.35,21.72,4.73,4.11,10.32,6.17,16.76,6.17,6.79,0,12.15-2.46,16.09-7.37,3.93-4.91,5.9-11.93,5.9-21.05,0-10.36-3.26-19.75-9.79-28.15-6.53-8.4-16.18-15.1-28.96-20.11-12.78-5-28.82-7.51-48.13-7.51-24.49,0-45.36,3.71-62.61,11.13-17.25,7.42-30.43,17.21-39.55,29.36-9.12,12.16-13.67,25.47-13.67,39.95,0,10.01,1.74,18.95,5.23,26.81,3.49,7.87,9.29,15.51,17.43,22.93,8.13,7.42,19.08,15.6,32.85,24.53,12.51,8.04,21.94,14.88,28.29,20.51,6.34,5.63,10.73,10.86,13.14,15.69,2.41,4.83,3.62,9.92,3.62,15.28,0,8.58-3.17,15.6-9.52,21.05-6.35,5.45-14.71,8.18-25.07,8.18-9.12,0-17.39-2.46-24.8-7.37-7.42-4.91-14.44-13.45-21.05-25.61-4.65-9.83-9.56-17.11-14.75-21.85-5.19-4.73-11.53-7.11-19.04-7.11-6.62,0-11.84,2.46-15.69,7.37-3.85,4.92-5.86,11.58-6.03,19.98,0,10.37,3.39,20.11,10.19,29.23,6.79,9.12,17.16,16.49,31.1,22.12,13.94,5.63,31.46,8.45,52.55,8.45,22.88,0,42.81-3.22,59.79-9.65,16.98-6.44,30.12-15.28,39.42-26.54,9.29-11.26,13.94-24.13,13.94-38.61,0-9.47-1.57-18.01-4.69-25.61-3.13-7.6-8.81-15.28-17.03-23.06-8.22-7.78-19.84-16.76-34.86-26.95-12.16-8.58-21.45-16-27.89-22.25-6.44-6.25-10.82-11.93-13.14-17.03-2.33-5.09-3.49-10.23-3.49-15.42,0-9.47,3.26-17.11,9.79-22.93Z"/>
  </g>
  <path class="cls-2" d="M2148.96,237.97c-6.53-7.06-16.58-10.59-30.17-10.59-11.98,0-22.48,2.15-31.5,6.44-9.03,4.29-16.09,9.92-21.18,16.89-5.09,6.97-7.91,14.66-8.45,23.06-.54,10.19,2.72,18.68,9.79,25.47,7.06,6.79,17.38,10.19,30.97,10.19,11.44,0,21.54-2.1,30.3-6.3,8.76-4.2,15.64-9.69,20.65-16.49,5-6.79,7.78-14.21,8.31-22.25.71-10.54-2.19-19.35-8.71-26.41Z"/>
</svg>