<?xml version="1.0" encoding="UTF-8"?>
<svg id="Layer_1" data-name="Layer 1" xmlns="http://www.w3.org/2000/svg" viewBox="0 0 527.82 260.62">
  <defs>
    <style>
      .cls-1 {
        fill: #fff;
      }

      .cls-2 {
        fill: #ea1b1b;
      }
    </style>
  </defs>
  <path class="cls-1" d="M418.33,82.32c5.9-16.44,8.85-30.83,8.85-43.17s-3.44-21.94-10.32-28.82c-6.88-6.88-17.83-10.32-32.85-10.32-11.26,0-23.46,2.33-36.6,6.97-13.14,4.65-26.46,12.16-39.95,22.52-13.5,10.37-26.5,24.22-39.01,41.56-.85,1.18-1.7,2.39-2.54,3.61,3.66-8.66,6.61-16.35,8.84-23.05,2.23-6.7,3.44-12.74,3.62-18.1.36-11.08-3.08-19.44-10.32-25.07-7.24-5.63-18.19-8.45-32.85-8.45s-31.37,4.2-49.6,12.6c-18.23,8.4-36.16,22.44-53.76,42.1-6.09,6.8-11.92,14.48-17.51,22.99.76-1.81,1.5-3.58,2.23-5.29,3.84-9.12,6.97-17.25,9.38-24.4,2.41-7.15,3.62-13.49,3.62-19.04,0-9.47-3.22-16.67-9.65-21.58-6.44-4.91-15.46-7.37-27.08-7.37-17.88,0-33.92,4.07-48.13,12.2-14.21,8.14-24.89,18.9-32.04,32.31-2.68,5.19-3.98,9.52-3.89,13,.09,3.49,1.38,5.86,3.89,7.11,2.15.9,4.33,1.03,6.57.4,2.23-.62,5.05-2.46,8.45-5.5,4.11-3.93,7.64-6.61,10.59-8.04,2.95-1.43,5.67-2.15,8.18-2.15,4.47,0,7.37,2.64,8.71,7.91,1.34,5.27-.49,14.71-5.5,28.29L7.28,202.71C.31,221.66-1.66,236.05,1.38,245.88c3.04,9.83,11.53,14.75,25.47,14.75,18.41,0,32.93-2.77,43.57-8.31,10.63-5.54,15.95-12.87,15.95-21.99,0-5.18-.85-9.69-2.55-13.54-1.7-3.84-2.55-8.27-2.55-13.27,0-3.22.49-6.97,1.47-11.26.98-4.29,2.64-9.83,4.96-16.62,2.32-6.79,5.27-15.28,8.85-25.47,7.86-21.63,17.16-39.77,27.89-54.43,10.73-14.66,21.63-25.74,32.71-33.25,11.08-7.51,20.82-11.26,29.23-11.26,7.86,0,12.56,3.44,14.08,10.32,1.52,6.88-.4,18.1-5.76,33.65l-37.81,107.52c-4.47,12.69-6.84,23.37-7.11,32.04-.27,8.67,1.78,15.15,6.17,19.44,4.38,4.29,11.22,6.44,20.51,6.44,18.41,0,32.93-2.77,43.57-8.31,10.63-5.54,15.95-12.87,15.95-21.99,0-5.18-.85-9.69-2.55-13.54-1.7-3.84-2.55-8.27-2.55-13.27,0-3.22.49-6.97,1.47-11.26.98-4.29,2.64-9.83,4.96-16.62,2.32-6.79,5.36-15.28,9.12-25.47,7.86-21.45,17.07-39.55,27.62-54.3,10.55-14.75,21.27-25.87,32.18-33.38,10.9-7.51,20.65-11.26,29.23-11.26,7.68,0,12.42,3.44,14.21,10.32,1.78,6.88-.18,18.1-5.9,33.65l-33.25,94.92c-5.01,14.48-7.33,27.04-6.97,37.67.36,10.64,3.8,18.77,10.32,24.4,6.52,5.63,16.49,8.45,29.9,8.45,17.87,0,33.78-4.02,47.73-12.07s24.4-18.77,31.37-32.18c2.86-5.36,4.24-9.74,4.16-13.14-.09-3.39-1.47-5.81-4.16-7.24-1.79-1.07-3.8-1.25-6.03-.54-2.24.72-5.23,2.59-8.98,5.63-3.93,3.75-7.33,6.44-10.19,8.04-2.86,1.61-5.72,2.41-8.58,2.41-4.11,0-6.93-2.72-8.45-8.18-1.52-5.45.13-14.79,4.96-28.02l32.71-93.04Z"/>
  <path class="cls-2" d="M519.01,187.56c-6.53-7.06-16.58-10.59-30.17-10.59-11.98,0-22.48,2.15-31.51,6.44-9.03,4.29-16.09,9.92-21.18,16.89-5.09,6.97-7.91,14.66-8.45,23.06-.54,10.19,2.72,18.68,9.79,25.47,7.06,6.79,17.38,10.19,30.97,10.19,11.44,0,21.54-2.1,30.3-6.3,8.76-4.2,15.64-9.69,20.65-16.49,5-6.79,7.78-14.21,8.31-22.25.71-10.54-2.19-19.35-8.71-26.41Z"/>
</svg>